<svg width="128" height="128" viewBox="0 0 128 128" fill="none" xmlns="http://www.w3.org/2000/svg">
<path d="M4.67499 63.9999C4.67499 60.9699 55.1749 64.6099 55.9049 61.8149C56.6799 58.9249 11.165 36.85 12.63 34.315C14.095 31.78 55.9949 60.1649 58.0799 58.0799C60.1649 55.9949 31.75 14.115 34.315 12.63C36.88 11.145 58.9249 56.6799 61.8149 55.9049C64.6099 55.1599 60.9699 4.67499 63.9999 4.67499C67.0299 4.67499 63.3899 55.1749 66.1849 55.9049C69.0749 56.6799 91.1499 11.165 93.6849 12.63C96.2199 14.095 67.8349 55.9949 69.9199 58.0799C72.0049 60.1649 113.885 31.75 115.37 34.315C116.855 36.88 71.3199 58.9249 72.0949 61.8149C72.8399 64.6099 123.325 60.9699 123.325 63.9999C123.325 67.0299 72.8249 63.3899 72.0949 66.1849C71.3199 69.0749 116.835 91.1499 115.37 93.6849C113.905 96.2199 72.0049 67.8349 69.9199 69.9199C67.8349 72.0049 96.2499 113.885 93.6849 115.37C91.1199 116.855 69.0749 71.3199 66.1849 72.0949C63.3899 72.8399 67.0299 123.325 63.9999 123.325C60.9699 123.325 64.6099 72.8249 61.8149 72.0949C58.9249 71.3199 36.85 116.835 34.315 115.37C31.78 113.905 60.1649 72.0049 58.0799 69.9199C55.9949 67.8349 14.115 96.2499 12.63 93.6849C11.145 91.1199 56.6799 69.0749 55.9049 66.1849C55.1599 63.3899 4.67499 67.0299 4.67499 63.9999Z" fill="#ED3A2B"/>
</svg>
